<?xml version="1.0" standalone="no"?>
<!DOCTYPE svg PUBLIC "-//W3C//DTD SVG 20010904//EN"
 "http://www.w3.org/TR/2001/REC-SVG-20010904/DTD/svg10.dtd">
<svg version="1.0" xmlns="http://www.w3.org/2000/svg"
 width="2363.000000pt" height="2363.000000pt" viewBox="0 0 2363.000000 2363.000000"
 preserveAspectRatio="xMidYMid meet">

<g transform="translate(0.000000,2363.000000) scale(0.100000,-0.100000)"
fill="#000000" stroke="none">
<path d="M11403 20449 c-2396 -145 -4533 -1558 -5607 -3709 -381 -765 -598
-1526 -683 -2405 -25 -257 -25 -906 0 -1125 39 -348 103 -692 178 -965 387
-1413 1196 -2378 2233 -2665 l69 -20 -24 28 c-13 14 -54 58 -90 97 -820 871
-1367 2004 -1538 3190 -48 327 -55 444 -55 855 -1 260 4 440 12 525 69 674
210 1236 454 1810 464 1091 1273 2043 2278 2682 795 504 1669 803 2630 900
251 25 867 25 1105 0 438 -47 771 -112 1158 -228 880 -263 1718 -750 2371
-1379 349 -334 606 -641 859 -1022 540 -812 856 -1696 964 -2693 13 -124 17
-253 18 -570 0 -433 -6 -541 -51 -855 -240 -1688 -1190 -3184 -2620 -4123
-636 -418 -1354 -712 -2104 -861 -173 -34 -362 -61 -655 -92 -778 -84 -1404
18 -2040 331 -375 185 -631 369 -930 669 -196 196 -289 309 -430 521 -303 456
-483 946 -561 1530 -22 163 -25 635 -6 800 87 752 382 1427 855 1956 952 1066
2432 1447 3787 974 442 -154 892 -427 1218 -739 45 -43 82 -76 82 -72 0 21
-101 249 -161 366 -250 484 -624 862 -1090 1104 -278 144 -567 232 -929 283
-179 25 -640 25 -835 -1 -510 -66 -948 -201 -1415 -437 -680 -344 -1222 -829
-1633 -1460 -448 -689 -697 -1531 -697 -2358 0 -567 164 -1274 432 -1866 189
-419 502 -854 874 -1215 660 -641 1472 -1035 2374 -1154 208 -28 351 -36 642
-36 1557 0 3062 546 4268 1550 1304 1087 2149 2616 2365 4283 72 558 74 1192
5 1732 -136 1062 -508 2048 -1105 2926 -1107 1630 -2875 2697 -4820 2908 -365
40 -801 51 -1152 30z"/>
<path d="M11460 19113 c-1187 -87 -2246 -518 -3150 -1282 -166 -140 -459 -434
-598 -599 -297 -353 -516 -684 -716 -1082 -289 -576 -458 -1141 -537 -1800
-27 -223 -37 -747 -20 -991 63 -880 333 -1714 798 -2464 41 -67 84 -132 95
-145 l20 -25 -6 56 c-21 206 -28 388 -23 594 9 312 32 523 92 815 l25 124 -30
95 c-129 423 -191 853 -192 1331 0 734 157 1401 487 2061 221 443 491 816 855
1179 256 257 427 398 710 587 556 371 1203 620 1867 718 319 47 770 60 1046
30 564 -62 1069 -261 1467 -581 104 -83 295 -273 376 -374 199 -246 361 -540
464 -840 24 -69 47 -129 52 -134 4 -6 8 440 8 991 l0 1001 -107 61 c-157 87
-455 230 -628 299 -521 208 -1035 327 -1614 372 -122 9 -629 11 -741 3z"/>
<path d="M14514 11018 c-98 -295 -251 -588 -436 -836 -94 -127 -356 -389 -483
-483 -676 -504 -1553 -667 -2600 -484 -859 151 -1677 562 -2323 1168 -58 54
-107 96 -109 93 -7 -6 41 -177 83 -298 152 -438 379 -816 709 -1181 l93 -103
154 -68 c911 -405 1851 -549 2843 -435 473 54 937 173 1400 359 148 59 511
236 628 305 l77 45 0 1000 c0 550 -2 1000 -4 1000 -2 0 -17 -37 -32 -82z"/>
<path d="M7965 5970 c-142 -16 -281 -69 -402 -151 -204 -139 -358 -412 -420
-744 -26 -144 -27 -859 -1 -1006 24 -133 82 -318 129 -414 48 -97 163 -242
243 -307 242 -194 642 -243 1004 -122 121 40 205 95 317 208 84 84 108 116
142 186 67 135 113 332 113 480 l0 30 -325 0 -325 0 0 -94 c0 -132 -27 -215
-89 -277 -57 -58 -121 -79 -237 -79 -166 0 -254 62 -293 208 -36 136 -41 207
-41 690 0 512 3 549 57 701 50 142 131 189 309 178 148 -9 230 -57 275 -161
17 -40 23 -77 27 -178 l5 -128 318 0 319 0 0 33 c0 17 -5 73 -10 122 -44 387
-255 669 -580 773 -145 47 -384 70 -535 52z"/>
<path d="M9410 4570 l0 -1370 320 0 320 0 0 1370 0 1370 -320 0 -320 0 0
-1370z"/>
<path d="M10467 5933 c-4 -3 -7 -620 -7 -1370 l0 -1363 320 0 320 0 0 853 c0
494 4 846 9 837 5 -8 138 -334 295 -725 158 -390 310 -767 338 -837 l52 -128
318 0 318 0 0 1370 0 1370 -317 -2 -318 -3 0 -842 c0 -463 -3 -839 -7 -835 -7
8 -34 73 -411 1002 l-274 675 -315 3 c-173 1 -317 -1 -321 -5z"/>
<path d="M12734 5927 c-2 -7 -3 -120 -2 -252 l3 -240 553 -5 552 -5 -243 -425
c-134 -234 -377 -658 -540 -943 l-297 -517 2 -168 3 -167 908 -3 907 -2 0 255
0 255 -534 2 -533 3 234 415 c309 546 769 1362 805 1425 27 49 28 53 28 218
l0 167 -920 0 c-735 0 -922 -3 -926 -13z"/>
<path d="M14880 4570 l0 -1370 810 0 810 0 -2 253 -3 252 -487 3 -488 2 0 325
0 325 409 0 409 0 -1 243 -2 242 -407 3 -408 2 0 290 0 290 490 0 490 0 -2
253 -3 252 -807 3 -808 2 0 -1370z"/>
</g>
</svg>
